<mxfile host="app.diagrams.net" modified="2022-03-01T03:05:53.348Z" agent="5.0 (Windows NT 10.0; Win64; x64) AppleWebKit/537.36 (KHTML, like Gecko) Chrome/98.0.4758.102 Safari/537.36" etag="B5evk24dkuXzs0shSPUS" version="16.6.4" type="github">
  <diagram id="C5RBs43oDa-KdzZeNtuy" name="Page-1">
    <mxGraphModel dx="1034" dy="1038" grid="1" gridSize="10" guides="1" tooltips="1" connect="1" arrows="1" fold="1" page="1" pageScale="1" pageWidth="827" pageHeight="1169" math="0" shadow="0">
      <root>
        <mxCell id="WIyWlLk6GJQsqaUBKTNV-0" />
        <mxCell id="WIyWlLk6GJQsqaUBKTNV-1" parent="WIyWlLk6GJQsqaUBKTNV-0" />
        <mxCell id="zkfFHV4jXpPFQw0GAbJ--0" value="Node" style="swimlane;fontStyle=2;align=center;verticalAlign=top;childLayout=stackLayout;horizontal=1;startSize=26;horizontalStack=0;resizeParent=1;resizeLast=0;collapsible=1;marginBottom=0;rounded=0;shadow=0;strokeWidth=1;" parent="WIyWlLk6GJQsqaUBKTNV-1" vertex="1">
          <mxGeometry x="80" y="690" width="110" height="90" as="geometry">
            <mxRectangle x="230" y="140" width="160" height="26" as="alternateBounds" />
          </mxGeometry>
        </mxCell>
        <mxCell id="zkfFHV4jXpPFQw0GAbJ--1" value="pk: Wallet Address&#xa;" style="text;align=left;verticalAlign=top;spacingLeft=4;spacingRight=4;overflow=hidden;rotatable=0;points=[[0,0.5],[1,0.5]];portConstraint=eastwest;" parent="zkfFHV4jXpPFQw0GAbJ--0" vertex="1">
          <mxGeometry y="26" width="110" height="64" as="geometry" />
        </mxCell>
        <mxCell id="fKE9cWLtXZmh-C1wj46n-12" value="Node" style="swimlane;fontStyle=2;align=center;verticalAlign=top;childLayout=stackLayout;horizontal=1;startSize=26;horizontalStack=0;resizeParent=1;resizeLast=0;collapsible=1;marginBottom=0;rounded=0;shadow=0;strokeWidth=1;" vertex="1" parent="WIyWlLk6GJQsqaUBKTNV-1">
          <mxGeometry x="612.9999999999999" y="680" width="110" height="90" as="geometry">
            <mxRectangle x="230" y="140" width="160" height="26" as="alternateBounds" />
          </mxGeometry>
        </mxCell>
        <mxCell id="fKE9cWLtXZmh-C1wj46n-13" value="pk: Wallet Address&#xa;" style="text;align=left;verticalAlign=top;spacingLeft=4;spacingRight=4;overflow=hidden;rotatable=0;points=[[0,0.5],[1,0.5]];portConstraint=eastwest;" vertex="1" parent="fKE9cWLtXZmh-C1wj46n-12">
          <mxGeometry y="26" width="110" height="64" as="geometry" />
        </mxCell>
        <mxCell id="fKE9cWLtXZmh-C1wj46n-14" value="" style="shape=cylinder3;whiteSpace=wrap;html=1;boundedLbl=1;backgroundOutline=1;size=15;" vertex="1" parent="WIyWlLk6GJQsqaUBKTNV-1">
          <mxGeometry x="440" y="935" width="60" height="80" as="geometry" />
        </mxCell>
        <mxCell id="fKE9cWLtXZmh-C1wj46n-26" value="* Data blocks are fragmented data that is redistributed across the network. Blocks are then hashed in the form of a binary tree." style="text;html=1;strokeColor=none;fillColor=none;align=center;verticalAlign=middle;whiteSpace=wrap;rounded=0;" vertex="1" parent="WIyWlLk6GJQsqaUBKTNV-1">
          <mxGeometry y="1060" width="820" height="20" as="geometry" />
        </mxCell>
        <mxCell id="fKE9cWLtXZmh-C1wj46n-55" value="" style="group" vertex="1" connectable="0" parent="WIyWlLk6GJQsqaUBKTNV-1">
          <mxGeometry x="103" y="40" width="620" height="320" as="geometry" />
        </mxCell>
        <mxCell id="fKE9cWLtXZmh-C1wj46n-17" value="" style="rounded=0;whiteSpace=wrap;html=1;" vertex="1" parent="fKE9cWLtXZmh-C1wj46n-55">
          <mxGeometry y="26.666666666666657" width="620" height="293.33333333333326" as="geometry" />
        </mxCell>
        <mxCell id="fKE9cWLtXZmh-C1wj46n-18" value="P2P Cloud" style="text;html=1;strokeColor=none;fillColor=none;align=center;verticalAlign=middle;whiteSpace=wrap;rounded=0;" vertex="1" parent="fKE9cWLtXZmh-C1wj46n-55">
          <mxGeometry x="240" width="120" height="26.666666666666657" as="geometry" />
        </mxCell>
        <mxCell id="fKE9cWLtXZmh-C1wj46n-52" value="" style="group" vertex="1" connectable="0" parent="fKE9cWLtXZmh-C1wj46n-55">
          <mxGeometry x="40.399999999999984" y="43.07692307692308" width="519.21" height="233.84615384615384" as="geometry" />
        </mxCell>
        <mxCell id="fKE9cWLtXZmh-C1wj46n-25" value="Data Blocks*" style="text;html=1;strokeColor=none;fillColor=none;align=center;verticalAlign=middle;whiteSpace=wrap;rounded=0;" vertex="1" parent="fKE9cWLtXZmh-C1wj46n-52">
          <mxGeometry x="384.0017709981771" y="184.61538461538458" width="62.403798000841334" height="36.92307692307692" as="geometry" />
        </mxCell>
        <mxCell id="fKE9cWLtXZmh-C1wj46n-27" value="&lt;span style=&quot;color: rgba(0 , 0 , 0 , 0) ; font-family: monospace ; font-size: 0px&quot;&gt;%3CmxGraphModel%3E%3Croot%3E%3CmxCell%20id%3D%220%22%2F%3E%3CmxCell%20id%3D%221%22%20parent%3D%220%22%2F%3E%3CmxCell%20id%3D%222%22%20value%3D%22%22%20style%3D%22rounded%3D0%3BwhiteSpace%3Dwrap%3Bhtml%3D1%3B%22%20vertex%3D%221%22%20parent%3D%221%22%3E%3CmxGeometry%20x%3D%22480%22%20y%3D%22900%22%20width%3D%22120%22%20height%3D%2260%22%20as%3D%22geometry%22%2F%3E%3C%2FmxCell%3E%3C%2Froot%3E%3C%2FmxGraphModel%3E&lt;/span&gt;" style="rounded=0;whiteSpace=wrap;html=1;" vertex="1" parent="fKE9cWLtXZmh-C1wj46n-52">
          <mxGeometry x="217.5916429959336" width="91.96349179071355" height="49.23076923076922" as="geometry" />
        </mxCell>
        <mxCell id="fKE9cWLtXZmh-C1wj46n-30" value="&lt;span style=&quot;color: rgba(0 , 0 , 0 , 0) ; font-family: monospace ; font-size: 0px&quot;&gt;L!&lt;/span&gt;" style="rounded=0;whiteSpace=wrap;html=1;" vertex="1" parent="fKE9cWLtXZmh-C1wj46n-52">
          <mxGeometry y="184.61538461538458" width="91.96349179071355" height="49.23076923076922" as="geometry" />
        </mxCell>
        <mxCell id="fKE9cWLtXZmh-C1wj46n-31" value="&lt;span style=&quot;color: rgba(0 , 0 , 0 , 0) ; font-family: monospace ; font-size: 0px&quot;&gt;%3CmxGraphModel%3E%3Croot%3E%3CmxCell%20id%3D%220%22%2F%3E%3CmxCell%20id%3D%221%22%20parent%3D%220%22%2F%3E%3CmxCell%20id%3D%222%22%20value%3D%22%22%20style%3D%22rounded%3D0%3BwhiteSpace%3Dwrap%3Bhtml%3D1%3B%22%20vertex%3D%221%22%20parent%3D%221%22%3E%3CmxGeometry%20x%3D%22480%22%20y%3D%22900%22%20width%3D%22120%22%20height%3D%2260%22%20as%3D%22geometry%22%2F%3E%3C%2FmxCell%3E%3C%2Froot%3E%3C%2FmxGraphModel%3E&lt;/span&gt;" style="rounded=0;whiteSpace=wrap;html=1;" vertex="1" parent="fKE9cWLtXZmh-C1wj46n-52">
          <mxGeometry x="185.5680939885019" y="184.61538461538458" width="91.96349179071355" height="49.23076923076922" as="geometry" />
        </mxCell>
        <mxCell id="fKE9cWLtXZmh-C1wj46n-39" value="" style="endArrow=classic;html=1;rounded=0;fontSize=10;exitX=0.5;exitY=0;exitDx=0;exitDy=0;entryX=0.25;entryY=1;entryDx=0;entryDy=0;" edge="1" parent="fKE9cWLtXZmh-C1wj46n-52" source="fKE9cWLtXZmh-C1wj46n-38" target="fKE9cWLtXZmh-C1wj46n-27">
          <mxGeometry width="50" height="50" relative="1" as="geometry">
            <mxPoint x="253.17275589115013" y="221.53846153846152" as="sourcePoint" />
            <mxPoint x="192.9585648377067" y="160" as="targetPoint" />
          </mxGeometry>
        </mxCell>
        <mxCell id="fKE9cWLtXZmh-C1wj46n-40" value="" style="endArrow=classic;html=1;rounded=0;fontSize=10;exitX=0.5;exitY=0;exitDx=0;exitDy=0;entryX=0.75;entryY=1;entryDx=0;entryDy=0;" edge="1" parent="fKE9cWLtXZmh-C1wj46n-52" source="fKE9cWLtXZmh-C1wj46n-29" target="fKE9cWLtXZmh-C1wj46n-27">
          <mxGeometry width="50" height="50" relative="1" as="geometry">
            <mxPoint x="168.59946124877317" y="110.76923076923076" as="sourcePoint" />
            <mxPoint x="250.98314894375224" y="61.53846153846154" as="targetPoint" />
          </mxGeometry>
        </mxCell>
        <mxCell id="fKE9cWLtXZmh-C1wj46n-41" value="Hash Function" style="text;html=1;strokeColor=none;fillColor=none;align=center;verticalAlign=middle;whiteSpace=wrap;rounded=0;fontSize=10;" vertex="1" parent="fKE9cWLtXZmh-C1wj46n-52">
          <mxGeometry x="223.3431930450111" y="30.76923076923077" width="78.82639750806275" height="12.307692307692305" as="geometry" />
        </mxCell>
        <mxCell id="fKE9cWLtXZmh-C1wj46n-42" value="O/P: Hash Value" style="text;html=1;strokeColor=none;fillColor=none;align=center;verticalAlign=middle;whiteSpace=wrap;rounded=0;fontSize=10;" vertex="1" parent="fKE9cWLtXZmh-C1wj46n-52">
          <mxGeometry x="218.96452655195208" y="6.153846153846152" width="89.22703050820297" height="24.61538461538461" as="geometry" />
        </mxCell>
        <mxCell id="fKE9cWLtXZmh-C1wj46n-47" value="" style="group" vertex="1" connectable="0" parent="fKE9cWLtXZmh-C1wj46n-52">
          <mxGeometry x="311.1973399971956" y="98.46153846153844" width="208.01266000280447" height="98.46153846153844" as="geometry" />
        </mxCell>
        <mxCell id="fKE9cWLtXZmh-C1wj46n-29" value="&lt;span style=&quot;color: rgba(0 , 0 , 0 , 0) ; font-family: monospace ; font-size: 0px&quot;&gt;%3CmxGraphModel%3E%3Croot%3E%3CmxCell%20id%3D%220%22%2F%3E%3CmxCell%20id%3D%221%22%20parent%3D%220%22%2F%3E%3CmxCell%20id%3D%222%22%20value%3D%22%22%20style%3D%22rounded%3D0%3BwhiteSpace%3Dwrap%3Bhtml%3D1%3B%22%20vertex%3D%221%22%20parent%3D%221%22%3E%3CmxGeometry%20x%3D%22480%22%20y%3D%22900%22%20width%3D%22120%22%20height%3D%2260%22%20as%3D%22geometry%22%2F%3E%3C%2FmxCell%3E%3C%2Froot%3E%3C%2FmxGraphModel%3E&lt;/span&gt;" style="rounded=0;whiteSpace=wrap;html=1;" vertex="1" parent="fKE9cWLtXZmh-C1wj46n-47">
          <mxGeometry x="50.359864986678986" width="91.96349179071356" height="49.23076923076922" as="geometry" />
        </mxCell>
        <mxCell id="fKE9cWLtXZmh-C1wj46n-43" value="Hash Function" style="text;html=1;strokeColor=none;fillColor=none;align=center;verticalAlign=middle;whiteSpace=wrap;rounded=0;fontSize=10;" vertex="1" parent="fKE9cWLtXZmh-C1wj46n-47">
          <mxGeometry x="56.111415035756494" y="30.76923076923077" width="78.82639750806277" height="12.307692307692305" as="geometry" />
        </mxCell>
        <mxCell id="fKE9cWLtXZmh-C1wj46n-44" value="O/P: Hash Value" style="text;html=1;strokeColor=none;fillColor=none;align=center;verticalAlign=middle;whiteSpace=wrap;rounded=0;fontSize=10;" vertex="1" parent="fKE9cWLtXZmh-C1wj46n-47">
          <mxGeometry x="51.732748542697486" y="6.153846153846152" width="89.227030508203" height="24.61538461538461" as="geometry" />
        </mxCell>
        <mxCell id="fKE9cWLtXZmh-C1wj46n-45" value="" style="endArrow=none;dashed=1;html=1;rounded=0;fontSize=10;exitX=0.75;exitY=1;exitDx=0;exitDy=0;" edge="1" parent="fKE9cWLtXZmh-C1wj46n-47" source="fKE9cWLtXZmh-C1wj46n-29">
          <mxGeometry width="50" height="50" relative="1" as="geometry">
            <mxPoint x="-72.80443100098157" y="-12.307692307692305" as="sourcePoint" />
            <mxPoint x="208.01266000280447" y="98.46153846153844" as="targetPoint" />
          </mxGeometry>
        </mxCell>
        <mxCell id="fKE9cWLtXZmh-C1wj46n-46" value="" style="endArrow=none;dashed=1;html=1;rounded=0;fontSize=10;exitX=0.25;exitY=1;exitDx=0;exitDy=0;" edge="1" parent="fKE9cWLtXZmh-C1wj46n-47" source="fKE9cWLtXZmh-C1wj46n-29">
          <mxGeometry width="50" height="50" relative="1" as="geometry">
            <mxPoint x="129.73311682985437" y="61.53846153846154" as="sourcePoint" />
            <mxPoint y="98.46153846153844" as="targetPoint" />
          </mxGeometry>
        </mxCell>
        <mxCell id="fKE9cWLtXZmh-C1wj46n-49" value="" style="group" vertex="1" connectable="0" parent="fKE9cWLtXZmh-C1wj46n-52">
          <mxGeometry x="92.7840469942509" y="98.46153846153844" width="91.96349179071356" height="49.23076923076922" as="geometry" />
        </mxCell>
        <mxCell id="fKE9cWLtXZmh-C1wj46n-28" value="&lt;span style=&quot;color: rgba(0 , 0 , 0 , 0) ; font-family: monospace ; font-size: 0px&quot;&gt;%3CmxGraphModel%3E%3Croot%3E%3CmxCell%20id%3D%220%22%2F%3E%3CmxCell%20id%3D%221%22%20parent%3D%220%22%2F%3E%3CmxCell%20id%3D%222%22%20value%3D%22%22%20style%3D%22rounded%3D0%3BwhiteSpace%3Dwrap%3Bhtml%3D1%3B%22%20vertex%3D%221%22%20parent%3D%221%22%3E%3CmxGeometry%20x%3D%22480%22%20y%3D%22900%22%20width%3D%22120%22%20height%3D%2260%22%20as%3D%22geometry%22%2F%3E%3C%2FmxCell%3E%3C%2Froot%3E%3C%2FmxGraphModel%3E&lt;/span&gt;" style="rounded=0;whiteSpace=wrap;html=1;" vertex="1" parent="fKE9cWLtXZmh-C1wj46n-49">
          <mxGeometry width="91.96349179071355" height="49.23076923076922" as="geometry" />
        </mxCell>
        <mxCell id="fKE9cWLtXZmh-C1wj46n-37" value="Hash Function" style="text;html=1;strokeColor=none;fillColor=none;align=center;verticalAlign=middle;whiteSpace=wrap;rounded=0;fontSize=10;" vertex="1" parent="fKE9cWLtXZmh-C1wj46n-49">
          <mxGeometry x="4.378666493059013" y="24.61538461538461" width="78.82639750806275" height="12.307692307692305" as="geometry" />
        </mxCell>
        <mxCell id="fKE9cWLtXZmh-C1wj46n-38" value="O/P: Hash Value" style="text;html=1;strokeColor=none;fillColor=none;align=center;verticalAlign=middle;whiteSpace=wrap;rounded=0;fontSize=10;" vertex="1" parent="fKE9cWLtXZmh-C1wj46n-49">
          <mxGeometry x="2.956037690222565e-14" width="89.22703050820297" height="24.61538461538461" as="geometry" />
        </mxCell>
        <mxCell id="fKE9cWLtXZmh-C1wj46n-50" value="D1" style="text;html=1;strokeColor=none;fillColor=none;align=center;verticalAlign=middle;whiteSpace=wrap;rounded=0;fontSize=10;" vertex="1" parent="fKE9cWLtXZmh-C1wj46n-52">
          <mxGeometry x="14.779299493199234" y="190.76923076923072" width="62.403798000841334" height="36.92307692307692" as="geometry" />
        </mxCell>
        <mxCell id="fKE9cWLtXZmh-C1wj46n-51" value="D2" style="text;html=1;strokeColor=none;fillColor=none;align=center;verticalAlign=middle;whiteSpace=wrap;rounded=0;fontSize=10;" vertex="1" parent="fKE9cWLtXZmh-C1wj46n-52">
          <mxGeometry x="200.34739348170106" y="190.76923076923072" width="62.403798000841334" height="36.92307692307692" as="geometry" />
        </mxCell>
        <mxCell id="fKE9cWLtXZmh-C1wj46n-35" value="" style="endArrow=classic;html=1;rounded=0;fontSize=10;exitX=0.5;exitY=0;exitDx=0;exitDy=0;entryX=0.25;entryY=1;entryDx=0;entryDy=0;" edge="1" parent="fKE9cWLtXZmh-C1wj46n-52" source="fKE9cWLtXZmh-C1wj46n-30" target="fKE9cWLtXZmh-C1wj46n-28">
          <mxGeometry width="50" height="50" relative="1" as="geometry">
            <mxPoint x="374.42278800504806" y="787.6923076923075" as="sourcePoint" />
            <mxPoint x="426.42595300574914" y="726.1538461538461" as="targetPoint" />
          </mxGeometry>
        </mxCell>
        <mxCell id="fKE9cWLtXZmh-C1wj46n-36" value="" style="endArrow=classic;html=1;rounded=0;fontSize=10;exitX=0.5;exitY=0;exitDx=0;exitDy=0;entryX=0.75;entryY=1;entryDx=0;entryDy=0;" edge="1" parent="fKE9cWLtXZmh-C1wj46n-52" source="fKE9cWLtXZmh-C1wj46n-31" target="fKE9cWLtXZmh-C1wj46n-28">
          <mxGeometry width="50" height="50" relative="1" as="geometry">
            <mxPoint x="193.23390791134207" y="1120" as="sourcePoint" />
            <mxPoint x="295.59693789872205" y="1058.4615384615383" as="targetPoint" />
          </mxGeometry>
        </mxCell>
        <mxCell id="fKE9cWLtXZmh-C1wj46n-62" value="" style="rounded=0;whiteSpace=wrap;html=1;fontSize=10;" vertex="1" parent="WIyWlLk6GJQsqaUBKTNV-1">
          <mxGeometry x="103" y="480" width="617" height="200" as="geometry" />
        </mxCell>
        <mxCell id="fKE9cWLtXZmh-C1wj46n-63" value="Web 3 Frontend/Backend" style="text;html=1;strokeColor=none;fillColor=none;align=center;verticalAlign=middle;whiteSpace=wrap;rounded=0;fontSize=10;" vertex="1" parent="WIyWlLk6GJQsqaUBKTNV-1">
          <mxGeometry x="310" y="440" width="170" height="30" as="geometry" />
        </mxCell>
      </root>
    </mxGraphModel>
  </diagram>
</mxfile>
